<mxfile host="app.diagrams.net" agent="Mozilla/5.0 (Windows NT 10.0; Win64; x64) AppleWebKit/537.36 (KHTML, like Gecko) Chrome/131.0.0.0 Safari/537.36" version="26.0.2">
  <diagram name="第 1 页" id="M5MeMRLtZV0gHbgQa_9G">
    <mxGraphModel dx="1034" dy="446" grid="1" gridSize="10" guides="1" tooltips="1" connect="1" arrows="1" fold="1" page="1" pageScale="1" pageWidth="827" pageHeight="1169" math="0" shadow="0">
      <root>
        <mxCell id="0" />
        <mxCell id="1" parent="0" />
        <mxCell id="UkNH57WdEz6cep3uEiiW-3" style="edgeStyle=orthogonalEdgeStyle;rounded=0;orthogonalLoop=1;jettySize=auto;html=1;exitX=0.5;exitY=1;exitDx=0;exitDy=0;entryX=0.5;entryY=0;entryDx=0;entryDy=0;" parent="1" source="UkNH57WdEz6cep3uEiiW-1" target="UkNH57WdEz6cep3uEiiW-2" edge="1">
          <mxGeometry relative="1" as="geometry" />
        </mxCell>
        <mxCell id="UkNH57WdEz6cep3uEiiW-1" value="登录" style="ellipse;whiteSpace=wrap;html=1;" parent="1" vertex="1">
          <mxGeometry x="120" y="40" width="80" height="40" as="geometry" />
        </mxCell>
        <mxCell id="UkNH57WdEz6cep3uEiiW-5" style="edgeStyle=orthogonalEdgeStyle;rounded=0;orthogonalLoop=1;jettySize=auto;html=1;exitX=0.5;exitY=1;exitDx=0;exitDy=0;entryX=0.5;entryY=0;entryDx=0;entryDy=0;" parent="1" source="UkNH57WdEz6cep3uEiiW-2" target="UkNH57WdEz6cep3uEiiW-4" edge="1">
          <mxGeometry relative="1" as="geometry" />
        </mxCell>
        <mxCell id="UkNH57WdEz6cep3uEiiW-2" value="新增普通用户" style="rounded=1;whiteSpace=wrap;html=1;" parent="1" vertex="1">
          <mxGeometry x="116.25" y="110" width="87.5" height="30" as="geometry" />
        </mxCell>
        <mxCell id="UkNH57WdEz6cep3uEiiW-7" style="edgeStyle=orthogonalEdgeStyle;rounded=0;orthogonalLoop=1;jettySize=auto;html=1;exitX=0.5;exitY=1;exitDx=0;exitDy=0;entryX=0.5;entryY=0;entryDx=0;entryDy=0;" parent="1" source="UkNH57WdEz6cep3uEiiW-4" edge="1">
          <mxGeometry relative="1" as="geometry">
            <mxPoint x="160" y="230" as="targetPoint" />
          </mxGeometry>
        </mxCell>
        <mxCell id="UkNH57WdEz6cep3uEiiW-4" value="修改用户密码" style="rounded=1;whiteSpace=wrap;html=1;" parent="1" vertex="1">
          <mxGeometry x="115.63" y="170" width="88.75" height="30" as="geometry" />
        </mxCell>
        <mxCell id="1TwW7zxXLkcW-ueCp6a5-1" value="查看日志" style="rounded=1;whiteSpace=wrap;html=1;" vertex="1" parent="1">
          <mxGeometry x="121.88" y="470" width="75" height="30" as="geometry" />
        </mxCell>
        <mxCell id="1TwW7zxXLkcW-ueCp6a5-4" style="edgeStyle=orthogonalEdgeStyle;rounded=0;orthogonalLoop=1;jettySize=auto;html=1;exitX=0.5;exitY=1;exitDx=0;exitDy=0;entryX=0.5;entryY=0;entryDx=0;entryDy=0;" edge="1" parent="1" source="1TwW7zxXLkcW-ueCp6a5-2" target="1TwW7zxXLkcW-ueCp6a5-3">
          <mxGeometry relative="1" as="geometry" />
        </mxCell>
        <mxCell id="1TwW7zxXLkcW-ueCp6a5-2" value="修改用户权限" style="rounded=1;whiteSpace=wrap;html=1;" vertex="1" parent="1">
          <mxGeometry x="115.63" y="230" width="88.75" height="30" as="geometry" />
        </mxCell>
        <mxCell id="1TwW7zxXLkcW-ueCp6a5-6" style="edgeStyle=orthogonalEdgeStyle;rounded=0;orthogonalLoop=1;jettySize=auto;html=1;exitX=0.5;exitY=1;exitDx=0;exitDy=0;entryX=0.5;entryY=0;entryDx=0;entryDy=0;" edge="1" parent="1" source="1TwW7zxXLkcW-ueCp6a5-3" target="1TwW7zxXLkcW-ueCp6a5-5">
          <mxGeometry relative="1" as="geometry" />
        </mxCell>
        <mxCell id="1TwW7zxXLkcW-ueCp6a5-3" value="删除用户" style="rounded=1;whiteSpace=wrap;html=1;" vertex="1" parent="1">
          <mxGeometry x="115" y="290" width="88.75" height="30" as="geometry" />
        </mxCell>
        <mxCell id="1TwW7zxXLkcW-ueCp6a5-8" style="edgeStyle=orthogonalEdgeStyle;rounded=0;orthogonalLoop=1;jettySize=auto;html=1;exitX=0.5;exitY=1;exitDx=0;exitDy=0;entryX=0.5;entryY=0;entryDx=0;entryDy=0;" edge="1" parent="1" source="1TwW7zxXLkcW-ueCp6a5-5" target="1TwW7zxXLkcW-ueCp6a5-7">
          <mxGeometry relative="1" as="geometry" />
        </mxCell>
        <mxCell id="1TwW7zxXLkcW-ueCp6a5-5" value="开启系统扫描任务" style="rounded=1;whiteSpace=wrap;html=1;" vertex="1" parent="1">
          <mxGeometry x="106.88" y="350" width="105" height="30" as="geometry" />
        </mxCell>
        <mxCell id="1TwW7zxXLkcW-ueCp6a5-9" style="edgeStyle=orthogonalEdgeStyle;rounded=0;orthogonalLoop=1;jettySize=auto;html=1;exitX=0.5;exitY=1;exitDx=0;exitDy=0;entryX=0.5;entryY=0;entryDx=0;entryDy=0;" edge="1" parent="1" source="1TwW7zxXLkcW-ueCp6a5-7" target="1TwW7zxXLkcW-ueCp6a5-1">
          <mxGeometry relative="1" as="geometry" />
        </mxCell>
        <mxCell id="1TwW7zxXLkcW-ueCp6a5-7" value="设置系统配置参数" style="rounded=1;whiteSpace=wrap;html=1;" vertex="1" parent="1">
          <mxGeometry x="107.50999999999999" y="410" width="105" height="30" as="geometry" />
        </mxCell>
      </root>
    </mxGraphModel>
  </diagram>
</mxfile>
